<svg height="512" viewBox="0 0 512 512" width="512" xmlns="http://www.w3.org/2000/svg"><path d="M137.478 483.032c-.013-.597 155.549 26.317 155.549 26.317 54.329-7.824 104.482-32.82 143.992-72.33 32.788-32.789 55.572-72.91 66.852-116.661 0 0-11.511-159.235-9.936-159.143-12.707-31.916-31.894-61.213-56.916-86.235L243.322 242.231 74.981 437.02c18.679 18.679 39.744 34.1 62.497 46.012" fill="#d2d2d7"/><path d="M437.019 74.98C388.667 26.629 324.38 0 256 0S123.333 26.629 74.981 74.98C26.629 123.333 0 187.62 0 256s26.629 132.667 74.981 181.02z" fill="#e1e1e6"/><circle cx="214.123" cy="135.815" fill="#b9b9be" transform="rotate(-76.7 214.187 135.846)" r="50.206"/><path d="M146.365 135.814c0-37.361 30.396-67.758 67.759-67.758s67.758 30.396 67.758 67.758-30.396 67.759-67.758 67.759c-37.363 0-67.759-30.396-67.759-67.759m105.516 0c0-20.819-16.938-37.758-37.758-37.758s-37.759 16.938-37.759 37.758 16.938 37.759 37.759 37.759 37.758-16.938 37.758-37.759" fill="#f2f2f5"/><circle cx="138.612" cy="208.583" fill="#d2d2d7" transform="rotate(-45 138.584 208.624)" r="74.667"/><path d="M48.945 208.583c0-49.442 40.224-89.666 89.666-89.666s89.667 40.224 89.667 89.666-40.224 89.667-89.667 89.667c-49.441 0-89.666-40.225-89.666-89.667m149.334 0c0-32.9-26.766-59.666-59.667-59.666-32.9 0-59.666 26.766-59.666 59.666s26.766 59.667 59.666 59.667 59.667-26.767 59.667-59.667" fill="#fcfcfd"/><circle cx="328.318" cy="279.637" fill="#a0a0a5" transform="rotate(-38.74 328.671 279.677)" r="39.243"/><path d="M274.094 279.564a53.95 53.95 0 0 1 10.113-31.493c17.406-24.322 51.355-29.95 75.678-12.545s29.951 51.356 12.545 75.679c-17.406 24.322-51.355 29.95-75.678 12.545-14.781-10.578-22.658-27.265-22.658-44.186m78.458.106c0-7.563-3.52-15.02-10.126-19.748-10.871-7.778-26.044-5.264-33.823 5.607-7.779 10.869-5.265 26.044 5.607 33.823 10.871 7.778 26.044 5.264 33.823-5.607a24.1 24.1 0 0 0 4.519-14.075" fill="#f5f5f8"/><path d="m330.364 388.72 21.21-21.21 21.21 21.21-21.21 21.21z" fill="#a0a0a5"/><path d="m93.64 375.901 21.21-21.21 21.21 21.21-21.21 21.21zm232.753-258.604 21.21-21.21 21.21 21.21-21.21 21.21z" fill="#b9b9be"/><path d="M408.847 241.394c0 44.365 35.965 80.33 80.33 80.33a80.7 80.7 0 0 0 14.694-1.365 255 255 0 0 0 6.253-33.154l-5.806-93.865a253 253 0 0 0-10.382-32.123 82 82 0 0 0-4.758-.152c-44.366-.001-80.331 35.964-80.331 80.329" fill="#e1e1e6"/><path d="M504.318 193.339a50.4 50.4 0 0 0-15.141-2.319c-27.821 0-50.374 22.553-50.374 50.374s22.553 50.374 50.374 50.374a50.2 50.2 0 0 0 20.947-4.564A260 260 0 0 0 512 256c0-21.409-2.612-42.417-7.682-62.661" fill="#a0a0a5"/><path d="M217.763 400.913c-44.365 0-80.33 35.965-80.33 80.33 0 .6.032 1.192.045 1.789a253 253 0 0 0 32.527 14.229l87.655 14.718a259 259 0 0 0 35.367-2.631 80.1 80.1 0 0 0 5.066-28.106c0-44.364-35.965-80.329-80.33-80.329" fill="#e1e1e6"/><path d="M257.66 511.98c6.563-8.506 10.477-19.162 10.477-30.737 0-27.821-22.553-50.374-50.374-50.374s-50.374 22.553-50.374 50.374c0 5.603.928 10.985 2.616 16.019C197.244 506.949 226.233 512 256 512c.555 0 1.106-.017 1.66-.02" fill="#a0a0a5"/></svg>