<svg id="Capa_1" enable-background="new 0 0 512 512" height="512" viewBox="0 0 512 512" width="512" xmlns="http://www.w3.org/2000/svg"><g><g><path d="m137.478 483.032c-.013-.597 155.549 26.317 155.549 26.317 54.329-7.824 104.482-32.82 143.992-72.33 32.788-32.789 55.572-72.91 66.852-116.661 0 0-11.511-159.235-9.936-159.143-12.707-31.916-31.894-61.213-56.916-86.235l-193.697 167.251-168.341 194.789c18.679 18.679 39.744 34.1 62.497 46.012z" fill="#d2d2d7"/><path d="m437.019 74.98c-48.352-48.351-112.639-74.98-181.019-74.98s-132.667 26.629-181.019 74.98c-48.352 48.353-74.981 112.64-74.981 181.02s26.629 132.667 74.981 181.02z" fill="#e1e1e6"/></g><g><ellipse cx="214.123" cy="135.815" fill="#b9b9be" rx="50.206" ry="50.206" transform="matrix(.23 -.973 .973 .23 32.746 313.006)"/><path d="m146.365 135.814c0-37.361 30.396-67.758 67.759-67.758 37.362 0 67.758 30.396 67.758 67.758s-30.396 67.759-67.758 67.759c-37.363 0-67.759-30.396-67.759-67.759zm105.516 0c0-20.819-16.938-37.758-37.758-37.758s-37.759 16.938-37.759 37.758 16.938 37.759 37.759 37.759 37.758-16.938 37.758-37.759z" fill="#f2f2f5"/><ellipse cx="138.612" cy="208.583" fill="#d2d2d7" rx="74.667" ry="74.667" transform="matrix(.707 -.707 .707 .707 -106.892 159.106)"/><path d="m48.945 208.583c0-49.442 40.224-89.666 89.666-89.666s89.667 40.224 89.667 89.666-40.224 89.667-89.667 89.667c-49.441 0-89.666-40.225-89.666-89.667zm149.334 0c0-32.9-26.766-59.666-59.667-59.666-32.9 0-59.666 26.766-59.666 59.666s26.766 59.667 59.666 59.667 59.667-26.767 59.667-59.667z" fill="#fcfcfd"/></g><ellipse cx="328.318" cy="279.637" fill="#a0a0a5" rx="39.243" ry="39.243" transform="matrix(.78 -.626 .626 .78 -102.77 267.277)"/><path d="m274.094 279.564c0-10.926 3.284-21.95 10.113-31.493 17.406-24.322 51.355-29.95 75.678-12.545 24.323 17.406 29.951 51.356 12.545 75.679-17.406 24.322-51.355 29.95-75.678 12.545-14.781-10.578-22.658-27.265-22.658-44.186zm78.458.106c0-7.563-3.52-15.02-10.126-19.748-10.871-7.778-26.044-5.264-33.823 5.607-7.779 10.869-5.265 26.044 5.607 33.823 10.871 7.778 26.044 5.264 33.823-5.607 3.052-4.263 4.519-9.192 4.519-14.075z" fill="#f5f5f8"/><path d="m336.653 373.725h30v30h-30z" fill="#a0a0a5" transform="matrix(.707 -.707 .707 .707 -171.873 362.511)"/><path d="m99.902 360.929h30v30h-30z" fill="#b9b9be" transform="matrix(.707 -.707 .707 .707 -232.168 191.355)"/><path d="m332.653 102.274h30v30h-30z" fill="#b9b9be" transform="matrix(.707 -.707 .707 .707 18.9 280.175)"/><g><path d="m408.847 241.394c0 44.365 35.965 80.33 80.33 80.33 5.022 0 9.928-.484 14.694-1.365 2.797-10.848 4.896-21.916 6.253-33.154l-5.806-93.865c-2.743-10.953-6.223-21.675-10.382-32.123-1.576-.092-3.16-.152-4.758-.152-44.366-.001-80.331 35.964-80.331 80.329z" fill="#e1e1e6"/><path d="m504.318 193.339c-4.779-1.504-9.865-2.319-15.141-2.319-27.821 0-50.374 22.553-50.374 50.374s22.553 50.374 50.374 50.374c7.477 0 14.566-1.641 20.947-4.564 1.241-10.276 1.876-20.691 1.876-31.204 0-21.409-2.612-42.417-7.682-62.661z" fill="#a0a0a5"/></g><g><path d="m217.763 400.913c-44.365 0-80.33 35.965-80.33 80.33 0 .6.032 1.192.045 1.789 10.505 5.5 21.366 10.26 32.527 14.229l87.655 14.718c11.938-.075 23.748-.957 35.367-2.631 3.269-8.749 5.066-18.217 5.066-28.106 0-44.364-35.965-80.329-80.33-80.329z" fill="#e1e1e6"/><path d="m257.66 511.98c6.563-8.506 10.477-19.162 10.477-30.737 0-27.821-22.553-50.374-50.374-50.374s-50.374 22.553-50.374 50.374c0 5.603.928 10.985 2.616 16.019 27.239 9.687 56.228 14.738 85.995 14.738.555 0 1.106-.017 1.66-.02z" fill="#a0a0a5"/></g></g></svg>