<svg id="Capa_1" enable-background="new 0 0 511.447 511.447" height="512" viewBox="0 0 511.447 511.447" width="512" xmlns="http://www.w3.org/2000/svg"><g><g><path d="m511.447 255.723-26.738-52.269 1.467-58.721-46.847-35.426-24.148-53.52-57.552-11.683-45.002-37.756-56.903 14.545-10.667 234.831 10.667 234.831 56.903 14.544 45.002-37.755 57.551-11.683 24.149-53.521 46.847-35.425-1.467-58.723z" fill="#fdae02"/><path d="m198.82 6.348-45.002 37.756-57.551 11.683-24.148 53.52-46.847 35.425 1.466 58.722-26.738 52.269 26.738 52.27-1.467 58.722 46.847 35.425 24.148 53.52 57.552 11.684 45.002 37.755 56.904-14.544v-469.662z" fill="#fdcb02"/></g><g><path d="m255.724 95.385-10.001 160.42 10.001 160.257c88.553 0 160.339-71.786 160.339-160.339s-71.787-160.338-160.339-160.338z" fill="#f7f0eb"/><path d="m95.385 255.724c0 88.553 71.786 160.339 160.339 160.339v-320.678c-88.553 0-160.339 71.786-160.339 160.339z" fill="#fffbf5"/></g><g><path d="m255.724 140.385-10.667 115.339 10.667 115.339c63.598 0 115.339-51.741 115.339-115.339s-51.741-115.339-115.339-115.339z" fill="#fdae02"/><path d="m140.385 255.723c0 63.598 51.741 115.339 115.339 115.339v-230.677c-63.598 0-115.339 51.741-115.339 115.338z" fill="#fdcb02"/></g><g><path d="m255.724 80.385-10.001 14.339 10.001 15.661c80.14 0 145.339 65.199 145.339 145.339s-65.199 145.339-145.339 145.339l-10.001 14.995 10.001 15.005c96.682 0 175.339-78.657 175.339-175.339s-78.657-175.339-175.339-175.339z" fill="#fd8c02"/><path d="m110.385 255.723c0-80.14 65.199-145.339 145.339-145.339v-30c-96.682 0-175.339 78.657-175.339 175.339s78.657 175.339 175.339 175.339v-30c-80.14 0-145.339-65.198-145.339-145.339z" fill="#fdae02"/></g></g></svg>