<svg height="512" viewBox="0 0 512.099 512.099" width="512" xmlns="http://www.w3.org/2000/svg"><path fill="#fff" d="M451.995 225.372a7.66 7.66 0 0 1-4.65-6.304c-6.743-68.631-64.787-122.428-135.16-122.428-25.815 0-50.935 7.277-72.643 21.046a136.3 136.3 0 0 0-37.094 34.739c-2.121 2.906-5.994 3.883-9.278 2.414a87.5 87.5 0 0 0-35.706-7.635c-23.137 0-44.943 8.953-61.402 25.208-12.485 12.33-20.811 27.79-24.233 44.629a7.75 7.75 0 0 1-5.076 5.804 99.27 99.27 0 0 0-43.027 29.311C8.426 270.049 0 292.885 0 316.457c0 54.589 44.412 99.001 99.002 99.001h312.615c57.618 0 103.554-47.139 100.321-104.666-2.133-37.949-25.577-70.831-59.943-85.42"/></svg>