<svg id="Layer_1" enable-background="new 0 0 512.099 512.099" height="512" viewBox="0 0 512.099 512.099" width="512" xmlns="http://www.w3.org/2000/svg"><path fill="#fff" d="m451.995 225.372c-2.589-1.099-4.375-3.505-4.65-6.304-6.743-68.631-64.787-122.428-135.16-122.428-25.815 0-50.935 7.277-72.643 21.046-14.5 9.197-27.064 20.999-37.094 34.739-2.121 2.906-5.994 3.883-9.278 2.414-11.159-4.992-23.332-7.635-35.706-7.635-23.137 0-44.943 8.953-61.402 25.208-12.485 12.33-20.811 27.79-24.233 44.629-.55 2.705-2.467 4.903-5.076 5.804-16.572 5.718-31.486 15.812-43.027 29.311-15.3 17.893-23.726 40.729-23.726 64.301 0 54.589 44.412 99.001 99.002 99.001h312.615c57.618 0 103.554-47.139 100.321-104.666-2.133-37.949-25.577-70.831-59.943-85.42z"/></svg>